<svg width="28" height="28" viewBox="0 0 28 28" fill="none" xmlns="http://www.w3.org/2000/svg">
<path d="M21.7153 0H6.28472C2.81377 0 0 2.81377 0 6.28472V21.7153C0 25.1862 2.81377 28 6.28472 28H21.7153C25.1862 28 28 25.1862 28 21.7153V6.28472C28 2.81377 25.1862 0 21.7153 0Z" fill="#F2F2F2"/>
<path d="M10.9064 12.3151H8.62824V18.9866H10.9064V12.3151Z" fill="#313131"/>
<path d="M10.5234 9.20164C10.3062 9.07017 10.0511 9 9.79008 9C9.61593 9 9.44349 9.03124 9.28268 9.09194C9.12187 9.15264 8.97588 9.24159 8.85308 9.35367C8.73029 9.46576 8.63312 9.59878 8.56716 9.74507C8.50121 9.89136 8.46777 10.048 8.46877 10.2061C8.47027 10.443 8.54904 10.6742 8.69514 10.8705C8.84123 11.0668 9.04811 11.2194 9.28968 11.3091C9.53125 11.3988 9.79668 11.4216 10.0525 11.3745C10.3083 11.3275 10.543 11.2127 10.727 11.0448C10.9111 10.8768 11.0362 10.6631 11.0865 10.4306C11.1369 10.1982 11.1103 9.95744 11.0101 9.73872C10.9098 9.51999 10.7405 9.3331 10.5234 9.20164Z" fill="#313131"/>
<path d="M14.5632 12.3147H12.3686L12.361 19H14.6391V15.6987C14.6391 14.8303 14.8214 13.9895 16.006 13.9895C17.1906 13.9895 17.1906 14.9888 17.1906 15.7607V18.9862H19.4688V15.3265C19.4688 13.5277 19.0055 12.1493 16.7274 12.1493C16.2932 12.1339 15.8626 12.2258 15.4814 12.4151C15.1002 12.6045 14.7829 12.8842 14.5632 13.2245V12.3147Z" fill="#313131"/>
</svg>
