<svg width="28" height="28" viewBox="0 0 28 28" fill="none" xmlns="http://www.w3.org/2000/svg">
<path d="M28 24.1111C28 25.1425 27.5903 26.1317 26.861 26.861C26.1317 27.5903 25.1425 28 24.1111 28H3.88889C2.85749 28 1.86834 27.5903 1.13903 26.861C0.409721 26.1317 0 25.1425 0 24.1111V3.88889C0 2.85749 0.409721 1.86834 1.13903 1.13903C1.86834 0.409721 2.85749 0 3.88889 0H24.1111C25.1425 0 26.1317 0.409721 26.861 1.13903C27.5903 1.86834 28 2.85749 28 3.88889V24.1111Z" fill="#F2F2F2"/>
<path d="M19.3496 11.0042C18.952 11.1894 18.4486 11.3633 17.9973 11.4211C18.4562 11.1349 19.1842 10.5391 19.3496 10C18.9209 10.2648 18.1456 10.5476 17.6399 10.6499C17.236 10.1999 16.6599 10 16.0217 10C14.7956 10 13.9405 11.0918 13.9405 12.3684V13.3158C12.1375 13.3158 10.3795 11.8725 9.28555 10.4737C9.08774 10.8262 8.98389 11.2283 8.9849 11.6375C8.9849 12.4992 9.73811 13.3736 10.3345 13.7895C9.9707 13.7776 9.28194 13.4858 8.98219 13.3158V13.3428C8.98219 14.464 9.7309 15.2252 10.7456 15.4374C10.5603 15.4909 10.3345 15.6842 9.4654 15.6842C9.74758 16.6008 11.1661 17.0854 12.1375 17.1053C11.3775 17.7244 10.0225 18.0526 8.98219 18.0526C8.80234 18.0526 8.70497 18.0631 8.53143 18.0417C9.51318 18.6954 10.8844 19 12.1375 19C16.22 19 18.4481 15.7231 18.4481 12.6668C18.4481 12.5664 18.4449 12.2301 18.44 12.1316C18.8763 11.8085 19.053 11.4703 19.3496 11.0042Z" fill="#313131"/>
</svg>
